<?xml version="1.0" encoding="utf-8"?>
<!-- Generator: Adobe Illustrator 18.0.0, SVG Export Plug-In . SVG Version: 6.00 Build 0)  -->
<!DOCTYPE svg PUBLIC "-//W3C//DTD SVG 1.1//EN" "http://www.w3.org/Graphics/SVG/1.1/DTD/svg11.dtd">
<svg version="1.1" id="Capa_1" xmlns="http://www.w3.org/2000/svg" xmlns:xlink="http://www.w3.org/1999/xlink" x="0px" y="0px"
	 viewBox="0 0 932.2 932.2" enable-background="new 0 0 932.2 932.2" xml:space="preserve">
<g>
	<path fill="#FFFFFF" d="M466.1,161.5c-205.6,0-382.8,121.2-464.2,296.1c-2.5,5.3-2.5,11.5,0,16.9
		c81.4,174.9,258.6,296.1,464.2,296.1s382.8-121.2,464.2-296.1c2.5-5.3,2.5-11.5,0-16.9C848.9,282.7,671.7,161.5,466.1,161.5z
		 M466.1,676.2C350,676.2,256,582.1,256,466.1C256,350,350.1,256,466.1,256c116.1,0,210.1,94.1,210.1,210.1S582.1,676.2,466.1,676.2
		z"/>
	<circle fill="#FFFFFF" cx="466.1" cy="466" r="134.5"/>
</g>
</svg>
