<?xml version="1.0" encoding="utf-8"?>
<!-- Generator: Adobe Illustrator 18.0.0, SVG Export Plug-In . SVG Version: 6.00 Build 0)  -->
<!DOCTYPE svg PUBLIC "-//W3C//DTD SVG 1.1//EN" "http://www.w3.org/Graphics/SVG/1.1/DTD/svg11.dtd">
<svg version="1.1" id="Layer_1" xmlns="http://www.w3.org/2000/svg" xmlns:xlink="http://www.w3.org/1999/xlink" x="0px" y="0px"
	 viewBox="0 0 800 800" enable-background="new 0 0 800 800" xml:space="preserve">
<g id="Main">
	<path fill="#332F2F" d="M168.7,646.5c0,0-85.6-147.9-3.1-294.8C77.8,392.8,40.4,432,31.7,473h-10c-1.8,0-4.7,1.1-4.7,2.9V513
		c0,1.8,2.9,4,4.7,4h11.9C55.9,592,168.7,646.5,168.7,646.5z"/>
	<path fill="#332F2F" d="M630.5,644.1c0,0,85.6-146.7,3.1-293.6C721.4,391.6,758.8,431,767.4,473h10c1.8,0,5.5-1.6,5.5,0.2v37.1
		c0,1.8-3.7,4.8-5.5,4.8h-11.9C743.3,588,630.5,644.1,630.5,644.1z"/>
	<path fill="none" stroke="#332F2F" stroke-width="5" stroke-miterlimit="10" d="M24,480.5c0-569,751-567,751,0"/>
	<path fill="none" stroke="#332F2F" stroke-width="5" stroke-miterlimit="10" d="M834.9,349.6"/>
	<path fill="none" stroke="#332F2F" stroke-width="2" stroke-miterlimit="10" d="M24,496c0-531,751-528,751,0"/>
</g>
</svg>
