<?xml version="1.0" encoding="utf-8"?>
<!-- Generator: Adobe Illustrator 18.0.0, SVG Export Plug-In . SVG Version: 6.00 Build 0)  -->
<!DOCTYPE svg PUBLIC "-//W3C//DTD SVG 1.1//EN" "http://www.w3.org/Graphics/SVG/1.1/DTD/svg11.dtd">
<svg version="1.1" id="Capa_1" xmlns="http://www.w3.org/2000/svg" xmlns:xlink="http://www.w3.org/1999/xlink" x="0px" y="0px"
	 viewBox="0 0 511.6 511.6" enable-background="new 0 0 511.6 511.6" xml:space="preserve">
<g>
	<g>
		<path fill="#FFFFFF" d="M234.7,270.1c8.8-20.7,16.2-37,22.3-48.8c4.6-8.8,8.9-16.1,12.9-22.1c4-6,8.9-11.8,14.6-17.6
			c5.7-5.7,12.3-10,19.7-12.9c7.4-2.9,15.7-4.3,24.8-4.3H402v54.8c0,2.5,0.9,4.6,2.7,6.4c1.8,1.8,3.9,2.7,6.4,2.7
			c2.7,0,4.9-0.9,6.6-2.6l91.4-91.4c1.7-1.7,2.6-3.9,2.6-6.6s-0.9-4.9-2.6-6.6L418,30.3c-2.3-1.9-4.6-2.8-6.9-2.8
			c-2.7,0-4.9,0.9-6.6,2.6c-1.7,1.7-2.6,3.9-2.6,6.6v54.8h-73.1c-12.9,0-25.1,1.6-36.5,4.7s-21.6,7.1-30.4,12
			c-8.9,4.9-17.4,11.4-25.7,19.6c-8.3,8.2-15.3,16.1-21.1,23.7c-5.8,7.6-11.9,17.1-18.3,28.5c-6.4,11.4-11.5,21.4-15.4,30
			c-3.9,8.6-8.6,19.1-14.1,31.7c-8.8,20.7-16.2,37-22.3,48.8c-4.6,8.8-8.9,16.1-12.8,22.1c-4,6-8.9,11.8-14.6,17.6
			c-5.7,5.7-12.3,10-19.7,12.9c-7.4,2.9-15.7,4.3-24.8,4.3h-64c-2.7,0-4.9,0.8-6.6,2.6c-1.7,1.7-2.6,3.9-2.6,6.6v54.8
			c0,2.7,0.9,4.9,2.6,6.6c1.7,1.7,3.9,2.6,6.6,2.6h64c12.9,0,25.1-1.6,36.5-4.7c11.4-3.1,21.6-7.1,30.4-12
			c8.9-4.9,17.4-11.4,25.7-19.6c8.3-8.2,15.3-16.1,21.1-23.7c5.8-7.6,11.9-17.1,18.3-28.5c6.4-11.4,11.5-21.4,15.4-30
			C224.5,293.2,229.2,282.7,234.7,270.1z"/>
		<path fill="#FFFFFF" d="M9.1,164.4h64c8.4,0,16.1,1.4,23.3,4.1s13.1,6.1,18,10c4.9,3.9,9.7,9.3,14.6,16.1
			c4.9,6.9,8.7,12.9,11.6,18.1c2.9,5.2,6.4,12.1,10.6,20.7c14.7-34.5,27.7-60.4,39.1-77.9c-30.5-42.8-69.5-64.2-117.1-64.2h-64
			c-2.7,0-4.9,0.9-6.6,2.6C0.9,95.6,0,97.8,0,100.5v54.8c0,2.7,0.9,4.9,2.6,6.6C4.3,163.6,6.5,164.4,9.1,164.4z"/>
		<path fill="#FFFFFF" d="M418,286.1c-2.3-1.9-4.6-2.8-6.9-2.8c-2.7,0-4.9,0.9-6.6,2.6c-1.7,1.7-2.6,3.9-2.6,6.6v54.8h-73.1
			c-8.4,0-16.1-1.4-23.3-4.1c-7.1-2.8-13.1-6.1-18-10c-4.8-3.9-9.7-9.3-14.6-16.1c-4.9-6.9-8.7-12.9-11.6-18.1
			c-2.9-5.2-6.4-12.1-10.6-20.7c-14.7,34.3-27.6,60.2-38.8,77.9c5.1,7.4,10.5,14,16,19.8c5.5,5.8,10.8,10.9,15.7,15.3
			c4.9,4.4,10.6,8.2,16.8,11.4c6.3,3.2,11.8,5.9,16.6,8.1c4.8,2.2,10.8,3.9,18,5.3c7.2,1.3,13.3,2.3,18.3,3
			c4.9,0.7,11.7,1.1,20.3,1.4c8.6,0.3,15.5,0.4,20.8,0.3c5.3-0.1,13-0.2,23.1-0.3c10.1-0.1,18.2-0.1,24.3-0.1v54.8
			c0,2.5,0.9,4.6,2.7,6.4c1.8,1.8,3.9,2.7,6.4,2.7c2.7,0,4.9-0.9,6.6-2.6l91.4-91.4c1.7-1.7,2.6-3.9,2.6-6.6c0-2.7-0.9-4.9-2.6-6.6
			L418,286.1z"/>
	</g>
</g>
</svg>
